<svg xmlns="http://www.w3.org/2000/svg" viewBox="0 0 486 486"><path d="M7,7.25v486H493V7.25Zm148.61,169.8c1.25-18.87,17.47-32.13,38.85-32.13,21.68,0,32.21,12.09,34.94,19.5a21.77,21.77,0,0,1,1.72,7.48c0,2.81-2.5,3.59-8.74,5.93-5,1.88-8.73,3.28-10.45,3.28-2.18,0-2.65-2.18-4.37-4.84-3.12-4.83-7-6.86-12.95-6.86-8.42,0-12.63,4.68-13.57,12a85.89,85.89,0,0,0,0,13.42c.94,8.34,5.31,13.41,13.57,13.41,6.4,0,9.83-2.34,13.11-7.17,1.25-1.87,2.18-4.84,4.52-4.84,1.56,0,2.65.31,9.52,2.81,8.42,3.12,9.75,3.9,9.75,6.4a22.87,22.87,0,0,1-2.34,8c-3.43,7.49-12.56,19.35-35.49,19.35-20.6,0-36.35-14.67-38.07-33.39A152.41,152.41,0,0,1,155.61,177.05Zm69.66,174.36c-6.4,5.78-7.8,6.71-10,6.71-2,0-3.27-1.09-6.39-4.52L192.2,334.41,175.66,353.6c-2.19,2.65-4.06,4.52-5.93,4.52-2.81,0-4.37-1.4-9.36-5.93-7-6.39-7.8-7.48-7.8-9.36s1.56-3.58,3.74-6.24L175,314.91l-18.4-21.37c-2-2.34-3.9-4.06-3.9-6.09,0-2.65,1.09-3.27,7.17-8.89,6.4-5.77,7.65-6.55,9.83-6.55,1.87,0,3,.93,6.08,4.52l16.39,18.88,16.38-18.88c1.87-2.18,3.58-4.52,6.08-4.52,2.65,0,4.37,1.87,9.83,6.55s7.18,6.71,7.18,8.58-.47,2.65-3.75,6.4l-18.56,21.37,19,21.68c2.49,3,3.74,4.53,3.74,6.09C232.13,344.71,231.51,345.8,225.27,351.41Zm41.8-183.87c-2-2.34-3.9-4.06-3.9-6.09,0-2.65,1.1-3.27,7.18-8.89,6.4-5.77,7.64-6.55,9.83-6.55,1.87,0,3,.93,6.08,4.52l16.38,18.88L319,150.53c1.88-2.18,3.59-4.52,6.09-4.52s4.37,1.87,9.83,6.55,7.17,6.71,7.17,8.58-.47,2.65-3.74,6.4L319.8,188.91l19,21.68c2.49,3,3.74,4.53,3.74,6.09,0,2-.62,3.12-6.86,8.73-6.4,5.78-7.8,6.71-10,6.71-2,0-3.27-1.09-6.39-4.52l-16.7-19.19L286.11,227.6c-2.19,2.65-4.06,4.52-5.93,4.52-2.81,0-4.37-1.4-9.36-5.93-7-6.39-7.8-7.48-7.8-9.36s1.56-3.58,3.74-6.24l18.72-21.68Zm71.14,167.65c3.9,4.06,5,5.77,5,7.8,0,1.72-1.33,3.43-6.95,8.58-6.39,5.93-7.1,7-9.59,7-2.65,0-4.21-2-6.87-5.15l-20.59-23.09c-3-3.27-3.82-3.43-7.57-3.43h-1.4v17.79c0,12.48,0,12.48-12.95,12.48-12.79,0-12.79,0-12.79-12.48V258c0-13.26-.08-13.26,12.79-13.26s12.95,0,12.95,13.26v44.54h.94c3.27,0,4.36-.31,7.33-3.43l21.14-22.77c3.59-3.9,4.83-5.31,7.17-5.31s3.51.94,9.44,6.24,8,6.55,8,8.74c0,1.09,0,2.34-4.22,6.55L318,314Z" transform="translate(-7 -7.25)" fill="#fff"/></svg>