<svg xmlns="http://www.w3.org/2000/svg" viewBox="0 0 486 486"><path d="M7,7.25v486H493V7.25ZM270.59,390a7,7,0,0,1-10.74,4.86l-29.92-20a10.53,10.53,0,0,1-4.33-11.49c8.42-31.28,35-155.13-60.6-188.76,0,0,44.85,26.56,56.31,89.58-55.37-9.81-104.43-48.31-116.84-106.69a143.41,143.41,0,0,1-3-23.6A142.21,142.21,0,0,1,268.24,243.82C268.8,246.44,280.93,312.29,270.59,390ZM377.54,151a112.94,112.94,0,0,1-99.91,89,153.53,153.53,0,0,0-4.39-15.57c12.94-30.51,51.08-53,51.08-53-27.16-1.16-57.07,38.11-57.07,38.11v0a152.21,152.21,0,0,0-9.82-18,113,113,0,0,1,122.45-59.25A114.07,114.07,0,0,1,377.54,151Z" transform="translate(-7 -7.25)" fill="#333"/></svg>