<svg id="tecnica_copy" data-name="tecnica copy" xmlns="http://www.w3.org/2000/svg" viewBox="0 0 486 486"><defs><style>.cls-1{fill:#333;}</style></defs><path class="cls-1" d="M7,7.25v486H493V7.25ZM272.29,385.4l-45.48-30.33s36.64-142.5-32.08-175.45c0,0,26.47,24.83,29.88,69-55.37-9.8-104.43-48.31-116.83-106.69a142.1,142.1,0,0,1-3-23.6A142.22,142.22,0,0,1,271.54,228.31C272.13,231.05,285.39,303.06,272.29,385.4ZM380.84,135.51a113,113,0,0,1-99.91,89A152.38,152.38,0,0,0,260.74,176a113,113,0,0,1,122.45-59.26A113.24,113.24,0,0,1,380.84,135.51Z" transform="translate(-7 -7.25)"/></svg>